# xmcd CD database file
#
# Track frame offsets:
#	150
#	11799
#	24186
#	41068
#	57826
#	70587
#	86317
#	103771
#	120411
#	138024
#	151782
#	169442
#	185034
#
# Disc length: 2818 seconds
#
# Revision: 0
# Processed by: cddbd v1.5.2PL0 Copyright (c) Steve Scherf et al.
# Submitted via: CDex 1.51
#
DISCID=9e0b000d
DTITLE=Justin Moore - Outlaws Like Me
DYEAR=2011
DGENRE=Country
TTITLE0=Redneck Side
TTITLE1=My Kind Of Woman
TTITLE2=If Heaven Wasn't So Far Away
TTITLE3=Run Out Of Honky Tonks
TTITLE4=Beer Time
TTITLE5=Bait A Hook
TTITLE6=Flyin' Down A Back Road
TTITLE7=If You Don't Like My Twang
TTITLE8=Guns
TTITLE9=Sunshine Babies
TTITLE10=Til My Last Day
TTITLE11=Bed Of My Chevy
TTITLE12=Outlaws Like Me
EXTD=YEAR: 2011
EXTT0=
EXTT1=
EXTT2=
EXTT3=
EXTT4=
EXTT5=
EXTT6=
EXTT7=
EXTT8=
EXTT9=
EXTT10=
EXTT11=
EXTT12=
PLAYORDER=
